<svg height="852pt" viewBox="-133 -26 852 852.49957" width="852pt" xmlns="http://www.w3.org/2000/svg"><path d="m284.828125 797.46875c22.28125-.03125 43.8125-8.066406 60.667969-22.636719l199.761718-171.464843c20.679688-17.722657 32.566407-43.597657 32.546876-70.832032v-380.984375c-.042969-30.953125-19.457032-58.554687-48.5625-69.054687l-226.46875-81.117188c-11.621094-4.167968-24.328126-4.167968-35.957032 0l-226.410156 81.117188c-29.105469 10.5-48.519531 38.101562-48.5625 69.054687v380.984375c-.027344 27.234375 11.867188 53.117188 32.542969 70.84375l199.765625 171.460938c16.859375 14.570312 38.390625 22.601562 60.675781 22.628906zm-266.351563-264.933594v-380.984375c.027344-19.703125 12.394532-37.269531 30.921876-43.945312l226.480468-81.152344c5.785156-2.078125 12.117188-2.078125 17.910156 0l226.460938 81.117187c18.542969 6.6875 30.902344 24.269532 30.921875 43.980469v380.984375c0 19.453125-8.496094 37.9375-23.261719 50.605469l-199.761718 171.453125c-24.867188 21.53125-61.78125 21.53125-86.648438 0l-199.761719-171.453125c-14.765625-12.667969-23.261719-31.152344-23.261719-50.605469zm0 0"/><path d="m321.113281 250.789062c1.191407.332032 2.425781.503907 3.664063.507813 5.945312-.003906 11.164062-3.953125 12.800781-9.667969.238281-.832031 25.140625-83.558594 133.691406-83.558594 7.355469 0 13.316407-5.960937 13.316407-13.320312 0-7.351562-5.960938-13.3125-13.316407-13.3125-128.417969 0-159 101.847656-159.292969 102.894531-2.011718 7.0625 2.070313 14.425781 9.136719 16.457031zm0 0"/><path d="m432.089844 278.832031c-16.863282-10.140625-37.953125-10.140625-54.816406 0l-46.039063 27.632813c-4.175781 2.410156-6.71875 6.878906-6.660156 11.695312.058593 4.8125 2.699219 9.222656 6.925781 11.535156 4.230469 2.304688 9.371094 2.152344 13.453125-.402343l46.027344-27.617188c8.429687-5.058593 18.972656-5.058593 27.402343 0l46.027344 27.617188c4.082032 2.554687 9.226563 2.707031 13.449219.402343 4.226563-2.3125 6.875-6.722656 6.933594-11.535156.050781-4.816406-2.492188-9.285156-6.664063-11.695312zm0 0"/><path d="m98.378906 158.070312c107.808594 0 132.695313 80.195313 133.710938 83.605469 1.644531 5.695313 6.859375 9.617188 12.78125 9.621094 1.238281-.003906 2.46875-.175781 3.664062-.507813 7.066406-2.03125 11.15625-9.394531 9.136719-16.457031-.292969-1.046875-30.871094-102.894531-159.292969-102.894531-7.351562 0-13.3125 5.960938-13.3125 13.3125 0 7.359375 5.960938 13.320312 13.3125 13.320312zm0 0"/><path d="m192.378906 278.832031c-16.863281-10.140625-37.957031-10.140625-54.820312 0l-46.039063 27.632813c-6.15625 3.855468-8.085937 11.929687-4.351562 18.152344 3.742187 6.226562 11.777343 8.304687 18.070312 4.675781l46.027344-27.617188c8.433594-5.058593 18.972656-5.058593 27.40625 0l46.023437 27.617188c4.082032 2.554687 9.230469 2.707031 13.453126.402343 4.222656-2.3125 6.878906-6.722656 6.933593-11.535156.050781-4.816406-2.496093-9.285156-6.664062-11.695312zm0 0"/><path d="m315.894531 525.742188c19 10.914062 40.277344 17.261718 62.152344 18.535156 102.4375 0 118.808594-60.765625 119.460937-63.367188.984376-3.976562.097657-8.183594-2.429687-11.414062-2.519531-3.234375-6.394531-5.121094-10.492187-5.121094-89.226563 0-116.355469-12.15625-132.605469-19.421875-8.394531-4.449219-17.699219-6.917969-27.203125-7.214844h-79.90625c-9.503906.296875-18.804688 2.765625-27.207032 7.214844-16.246093 7.265625-43.375 19.421875-132.597656 19.421875-4.101562 0-7.976562 1.886719-10.492187 5.121094-2.523438 3.230468-3.421875 7.4375-2.425781 11.414062.648437 2.601563 17.015624 63.367188 119.453124 63.367188 21.875-1.273438 43.152344-7.617188 62.152344-18.523438 19.5-10.007812 42.632813-10.007812 62.140625-.011718zm-124.292969-8.101563c-47.792968 0-71.683593-14.648437-83.296874-26.925781 76.800781-2.023438 103.621093-14.007813 120.230468-21.4375 4.992188-2.871094 10.589844-4.550782 16.335938-4.902344h79.90625c5.75.351562 11.339844 2.03125 16.339844 4.902344 16.605468 7.429687 43.445312 19.421875 120.324218 21.449218-11.480468 12.265626-35.449218 26.914063-83.394531 26.914063-17.617187-1.382813-34.6875-6.710937-49.96875-15.578125-27.167969-13.953125-59.394531-13.953125-86.558594 0-15.273437 8.855469-32.320312 14.183594-49.917969 15.578125zm0 0"/><path d="m261.601562 698.761719c2.796876 10.644531 12.21875 18.210937 23.226563 18.640625 10.988281-.425782 20.414063-7.996094 23.207031-18.640625l28.410156-88.066407c3.289063-10.023437 1.6875-21.011718-4.332031-29.671874-4.285156-6.230469-11.332031-9.996094-18.898437-10.113282h-56.796875c-7.550781.117188-14.585938 3.871094-18.882813 10.082032-6.027344 8.664062-7.628906 19.648437-4.332031 29.671874zm-3.046874-96.261719c-.511719-1.613281-.488282-3.351562.078124-4.953125h52.386719c.558594 1.601563.585938 3.339844.078125 4.953125l-26.269531 81.238281zm0 0"/></svg>